<svg viewBox="0 0 256.00 256.00" enable-background="new 0 0 256.00 256.00" xml:space="preserve"><g><path fill-opacity="1" stroke-width="1" stroke-linejoin="round" d="M 84.3166,126.157L 84.3166,134.544L 75.7296,135.839L 75.5291,135.839L 75.5291,151.625L 63.8896,151.625L 63.8896,135.839L 37.1571,135.839C 34.1251,135.839 31.8691,134.608 30.3891,132.146C 28.9091,129.685 28.7653,127.056 29.9575,124.261L 48.1029,82.5585L 60.0508,82.5585L 42.7841,122.565C 41.7255,124.959 42.445,126.157 44.9425,126.157L 63.8896,126.157L 63.8896,107.595L 65.9708,96.3719L 75.5291,96.3719L 75.5291,126.157L 84.3166,126.157 Z "></path><path fill-opacity="1" stroke-width="1" stroke-linejoin="round" d="M 98.4229,107.225L 101.984,107.225C 103.629,107.225 104.762,107.544 105.384,108.181C 106.005,108.818 106.316,109.944 106.316,111.557L 106.316,116.706C 106.316,118.32 106.005,119.445 105.384,120.083C 104.762,120.72 103.629,121.039 101.984,121.039L 98.4229,121.039C 96.7784,121.039 95.6453,120.72 95.0235,120.083C 94.4017,119.445 94.0908,118.32 94.0908,116.706L 94.0908,111.557C 94.0908,109.944 94.4017,108.818 95.0235,108.181C 95.6453,107.544 96.7784,107.225 98.4229,107.225 Z M 98.4229,137.812L 101.984,137.812C 103.629,137.812 104.762,138.115 105.384,138.721C 106.005,139.328 106.316,140.469 106.316,142.144L 106.316,147.185C 106.316,148.871 106.005,150.032 105.384,150.669C 104.762,151.307 103.629,151.625 101.984,151.625L 98.4229,151.625C 96.7784,151.625 95.6453,151.307 95.0235,150.669C 94.4017,150.032 94.0908,148.871 94.0908,147.185L 94.0908,142.144C 94.0908,140.469 94.4017,139.328 95.0235,138.721C 95.6453,138.115 96.7784,137.812 98.4229,137.812 Z "></path><path fill-opacity="1" stroke-width="1" stroke-linejoin="round" d="M 159.396,92.2402L 131.384,92.2402L 130.597,107.225L 139.169,108.227C 147.463,109.029 153.319,111.187 156.736,114.702C 160.154,118.217 161.832,123.459 161.77,130.427C 161.77,133.5 161.441,136.26 160.783,138.706C 160.126,141.152 159.008,143.48 157.43,145.69C 155.853,147.899 153.501,149.606 150.377,150.808C 147.253,152.011 143.455,152.612 138.984,152.612C 132.468,152.612 125.232,151.867 117.277,150.376L 118.557,140.263C 124.806,141.26 130.595,141.759 135.924,141.759C 141.253,141.759 144.837,140.898 146.677,139.176C 148.517,137.455 149.503,134.508 149.637,130.335C 149.699,128.577 149.632,127.074 149.437,125.825C 149.241,124.577 148.766,123.515 148.011,122.642C 147.255,121.768 146.515,121.077 145.791,120.568C 145.066,120.06 143.815,119.62 142.037,119.25C 140.259,118.88 138.663,118.61 137.25,118.441C 135.837,118.271 133.681,118.053 130.782,117.786L 124.277,117.076C 122.961,117.076 121.892,116.588 121.07,115.612C 120.248,114.635 119.903,113.474 120.037,112.128L 121.61,82.5585L 159.797,82.5585L 159.396,92.2402 Z "></path><path fill-opacity="1" stroke-width="1" stroke-linejoin="round" d="M 183.477,116.244L 183.477,115.828C 180.126,115.427 177.659,113.803 176.077,110.956C 174.494,108.109 173.702,104.44 173.702,99.9485C 173.702,93.3194 175.283,88.5993 178.443,85.7883C 181.604,82.9773 187.557,81.5719 196.303,81.5719C 205.122,81.5719 211.108,82.9619 214.264,85.7421C 217.419,88.5222 218.997,93.2577 218.997,99.9485C 218.997,104.44 218.19,108.109 216.576,110.956C 214.963,113.803 212.481,115.427 209.13,115.828L 209.13,116.244C 213.344,116.645 216.304,118.413 218.01,121.547C 219.716,124.682 220.569,128.994 220.569,134.482C 220.569,141.019 218.894,145.674 215.543,148.449C 212.193,151.224 205.779,152.612 196.303,152.612C 187.033,152.612 180.686,151.199 177.264,148.372C 173.841,145.546 172.13,140.88 172.13,134.374C 172.13,128.927 172.968,124.641 174.643,121.516C 176.318,118.392 179.263,116.634 183.477,116.244 Z M 205.522,93.3348C 204.042,91.9473 201,91.2535 196.396,91.2535C 191.791,91.2535 188.718,91.9473 187.177,93.3348C 185.635,94.7223 184.864,97.3637 184.864,101.259C 184.864,105.226 185.635,107.87 187.177,109.191C 188.718,110.512 191.825,111.172 196.496,111.172C 201.167,111.172 204.209,110.512 205.623,109.191C 207.036,107.87 207.742,105.226 207.742,101.259C 207.742,97.3637 207.002,94.7223 205.522,93.3348 Z M 196.504,120.854C 191.375,120.854 187.971,121.609 186.29,123.12C 184.61,124.631 183.77,127.606 183.77,132.046C 183.77,136.28 184.61,139.153 186.29,140.664C 187.971,142.175 191.339,142.93 196.396,142.93C 201.401,142.93 204.726,142.177 206.37,140.672C 208.015,139.166 208.837,136.306 208.837,132.092C 208.837,127.611 208.03,124.618 206.417,123.112C 204.803,121.606 201.499,120.854 196.504,120.854 Z "></path></g></svg>
