<svg viewBox="0 0 256.00 256.00" enable-background="new 0 0 256.00 256.00" xml:space="preserve"><g><path fill-opacity="1" stroke-linejoin="round" d="M 129.133,69.5C 161.856,69.5 188.383,96.0271 188.383,128.75C 188.383,161.473 161.856,188 129.133,188C 96.4105,188 69.8833,161.473 69.8833,128.75C 69.8833,96.0271 96.4105,69.5 129.133,69.5 Z M 129.133,82.25C 103.452,82.25 82.6333,103.069 82.6333,128.75C 82.6333,154.431 103.452,175.25 129.133,175.25C 154.815,175.25 175.633,154.431 175.633,128.75C 175.633,103.069 154.815,82.25 129.133,82.25 Z "></path><g><ellipse fill-opacity="1" stroke-width="11" stroke-linejoin="round" cx="109.979" cy="113.329" rx="6.81251" ry="6.81251"></ellipse><ellipse fill-opacity="1" stroke-width="11" stroke-linejoin="round" cx="146.667" cy="113.329" rx="6.81252" ry="6.81251"></ellipse></g></g><path fill-opacity="1" stroke-width="11" stroke-linejoin="round" d="M 107.035,133.39C 107.09,133.331 101.167,135.714 97.7604,137.177C 103.594,152.224 116.594,160.224 129.26,160.224C 141.76,160.224 152.927,152.891 160.156,136.698C 158.99,136.203 152.073,133.828 149.547,132.995C 147.979,136.661 140.396,149.693 129.573,149.865C 118.74,150.037 113.994,144.681 107.035,133.39 Z "></path></svg>
