<svg viewBox="0 0 256.00 256.00" enable-background="new 0 0 256.00 256.00" xml:space="preserve"><g><path fill-opacity="1" stroke-linejoin="round" d="M 65.8437,88.6501L 65.1125,74.2688C 74.4,72.2563 83.6843,71.2501 92.9656,71.2501C 102.247,71.2501 109.187,72.6001 113.787,75.3C 118.387,78.0001 120.687,83.0001 120.687,90.3C 120.687,95.2125 119.787,99.5532 117.987,103.322C 116.187,107.091 112.606,111.794 107.244,117.431L 86,139.331C 89.0375,138.744 93.1187,138.45 98.2437,138.45L 123.087,138.45L 123.087,155.25L 64.4,155.25L 64.4,145.088C 64.4,141.975 65.2812,139.5 67.0437,137.663L 87.3125,115.913C 97.2375,105.625 102.162,97.7688 102.087,92.3438C 102,90.0313 101.116,88.5376 99.4343,87.8625C 97.7531,87.1875 94.875,86.8501 90.8,86.8501C 82.325,86.8501 74.0062,87.4501 65.8437,88.6501 Z "></path><path fill-opacity="1" stroke-linejoin="round" d="M 131.844,72.4501L 181.512,72.4501C 184.562,72.4501 186.787,73.3907 188.187,75.2719C 189.587,77.1532 189.806,79.4501 188.844,82.1626L 163.756,155.25L 145.756,155.25L 166.756,95.775C 167.719,92.8501 168.881,90.2751 170.244,88.05L 132.556,88.05L 131.844,72.4501 Z "></path></g><rect x="64.2083" y="175.792" fill-opacity="1" stroke-linejoin="round" width="32.5" height="16"></rect><rect x="111.708" y="175.792" fill-opacity="1" stroke-linejoin="round" width="80.5" height="16"></rect></svg>
