<svg viewBox="0 0 256 256" enable-background="new 0 0 256 256" xml:space="preserve"><g><path stroke-linejoin="round" d="M 131.196,128.46L 131.196,138.112L 122.861,139.522L 122.675,139.522L 122.675,154.395L 108.685,154.395L 108.685,139.522L 81.6185,139.522C 78.6439,139.522 76.4129,138.36 74.9256,136.036C 73.4383,133.712 73.2575,131.161 74.3833,128.382L 92.1227,85.978L 106.407,85.978L 90.1396,125.206C 89.6852,126.322 89.6542,127.143 90.0467,127.67C 90.4392,128.196 91.1312,128.46 92.1227,128.46L 108.685,128.46L 108.685,109.915L 111.164,98.8682L 122.675,98.8682L 122.675,128.46L 131.196,128.46 Z "></path><path stroke-linejoin="round" d="M 175.614,97.8766L 147.556,97.8766L 146.766,110.519L 156.573,111.696C 164.444,112.543 170.016,114.79 173.29,118.436C 176.564,122.082 178.201,127.132 178.201,133.588C 178.201,148.12 170.233,155.386 154.296,155.386C 147.686,155.386 140.084,154.658 131.49,153.202L 132.885,141.334C 140.218,142.109 146.1,142.496 150.531,142.496C 155.489,142.496 158.81,141.773 160.493,140.327C 162.177,138.881 163.086,136.387 163.22,132.844C 163.416,128.775 162.458,126.149 160.346,124.966C 158.234,123.783 153.872,122.898 147.262,122.309L 138.927,121.333C 137.471,121.199 136.298,120.607 135.41,119.559C 134.522,118.511 134.109,117.263 134.171,115.817L 135.859,85.978L 176.11,85.978L 175.614,97.8766 Z "></path></g><path stroke-linejoin="round" d="M 221.333,127.593C 221.333,143.387 217.417,158.266 210.503,171.313L 197.391,163.743C 203.024,152.927 206.208,140.632 206.208,127.593C 206.208,85.4805 172.994,51.1255 131.333,49.2947L 131.333,34.1572C 181.35,35.9978 221.333,77.1261 221.333,127.593 Z M 127.833,221.093C 76.1947,221.093 34.3333,179.232 34.3333,127.593C 34.3333,77.1261 74.3163,35.9978 124.333,34.1572L 124.333,49.2947C 82.6721,51.1255 49.4583,85.4805 49.4583,127.593C 49.4583,170.878 84.548,205.968 127.833,205.968C 155.578,205.968 179.956,191.551 193.884,169.801L 206.996,177.371C 190.443,203.64 161.176,221.093 127.833,221.093 Z "></path></svg>
