<svg viewBox="0 0 256.00 256.00" enable-background="new 0 0 256.00 256.00" xml:space="preserve"><path fill-opacity="1" stroke-width="18" stroke-linejoin="round" d="M 44.0625,161.083L 44.0625,144.083L 62.1254,144.083C 62.1254,144.083 81.462,99.6708 83.0833,96.0208C 85.1146,91.4479 96.1146,90.3541 97.8333,96.0208C 99.8999,102.834 109.25,144.854 109.25,144.854C 109.25,144.854 122.468,69.6398 123,66.8958C 123.854,62.4896 136.021,62.6979 137.25,66.4791C 138.692,70.9151 156.667,127.479 156.667,127.479C 156.667,127.479 164.639,118.68 166.167,116.729C 168.083,114.281 175.208,113.656 177.583,116.812C 180.49,120.675 195.75,142.062 195.75,142.062L 210.75,142.062L 210.75,159.979C 210.75,159.979 192.502,159.979 190.667,159.979C 188.831,159.979 187.083,159.062 185.583,157.229C 184.083,155.396 170.667,136.979 170.667,136.979C 170.667,136.979 158.5,150.479 157.083,151.896C 155.667,153.312 147,154.812 145,149.229C 143,143.646 132.333,110.812 132.333,110.812C 132.333,110.812 119.52,193.233 119.083,195.312C 117.948,200.719 104.75,204.062 102.833,196.146C 100.917,188.229 87.5833,130.062 87.5833,130.062C 87.5833,130.062 75.75,157.062 75.1667,158.312C 74.5833,159.562 71.75,160.979 69.9167,160.979C 68.0833,160.979 44.1667,161.146 44.0625,161.083 Z "></path></svg>
