<svg viewBox="0 0 256.00 256.00" enable-background="new 0 0 256.00 256.00" xml:space="preserve"><path fill-opacity="1" fill-rule="evenodd" stroke-width="0.2" stroke-linejoin="round" d="M 127.197,67.8632C 142.289,67.8632 154.524,80.0982 154.524,95.1908C 154.524,110.283 142.289,122.518 127.197,122.518C 112.104,122.518 99.869,110.283 99.869,95.1908C 99.869,80.0982 112.104,67.8632 127.197,67.8632 Z M 126.856,181.875C 113.001,159.298 95.3891,133.861 85.2918,114.144C 75.1946,94.4267 82.2196,49.2995 126.893,49.2995C 171.566,49.2995 180.038,98.423 168.487,114.173C 163.642,122.136 140.733,159.308 126.856,181.875 Z M 127.197,62.2214C 109.15,62.2214 94.5211,76.8507 94.5211,94.8969C 94.5211,112.943 109.15,127.572 127.197,127.572C 145.243,127.572 159.872,112.943 159.872,94.8969C 159.872,76.8507 145.243,62.2214 127.197,62.2214 Z "></path></svg>
