<svg viewBox="0 0 256.00 256.00" enable-background="new 0 0 256.00 256.00" xml:space="preserve"><path fill-opacity="1" stroke-width="0.2" stroke-linejoin="round" d="M 44.0625,213.153L 44.0625,197.216L 63.9375,191.485L 80.9167,169.771L 96.1875,188.792L 111.438,170.837L 128.271,186.211L 144.583,191.99L 160.104,176.56L 174.313,191.653L 191.938,183.995L 210.75,195.802L 210.75,212.38C 210.75,212.38 44.1667,213.197 44.0625,213.153 Z "></path><g><path fill-opacity="1" stroke-width="0.2" stroke-linejoin="round" d="M 97.2027,94.2727C 93.032,94.2377 89.4375,94.6682 86.4194,95.5645C 83.4012,96.4607 80.5962,98.033 78.0043,100.281C 78.3385,91.0406 79.8173,84.9609 82.4408,82.0425C 85.0642,79.1241 89.4797,77.7959 95.687,78.0577C 100.094,78.0526 103.612,78.0629 106.24,78.0887C 108.869,78.1145 111.634,78.1867 114.536,78.3053L 115.482,65.8417C 111.556,64.8256 107.818,64.207 104.266,63.9861C 100.715,63.7652 97.8552,63.6769 95.687,63.7211C 83.665,63.1702 74.6831,65.7859 68.7414,71.5679C 62.7997,77.3499 59.8342,89.6031 59.8449,108.327C 59.5837,124.588 61.7008,135.751 66.1963,141.817C 70.6917,147.883 79.1326,150.757 91.519,150.439C 103.486,150.389 111.455,147.791 115.426,142.646C 119.397,137.501 121.228,130.112 120.918,120.479C 121.08,111.182 119.427,104.47 115.959,100.343C 112.492,96.2157 106.24,94.1924 97.2027,94.2727 Z M 91.6453,136.086C 85.6089,136.322 81.7671,134.778 80.1199,131.455C 78.4727,128.131 77.7254,121.614 77.878,111.902C 80.4015,110.316 82.7118,109.199 84.809,108.551C 86.9062,107.903 89.1849,107.59 91.6453,107.613C 96.466,107.531 99.7396,108.469 101.466,110.427C 103.193,112.386 104.003,115.855 103.898,120.837C 104.09,126.059 103.453,129.911 101.987,132.393C 100.521,134.875 97.0738,136.106 91.6453,136.086 Z "></path><path fill-opacity="1" stroke-width="0.2" stroke-linejoin="round" d="M 183.394,64.8783L 133.122,64.8783L 131.069,101.848C 130.985,103.705 131.48,105.25 132.553,106.483C 133.627,107.717 135.045,108.441 136.808,108.657L 146.808,109.873C 154.629,110.331 160.147,111.329 163.36,112.867C 166.574,114.404 168.015,117.743 167.685,122.883C 167.723,126.996 166.61,130.016 164.346,131.941C 162.082,133.866 157.663,134.819 151.087,134.798C 148.017,134.791 144.632,134.654 140.932,134.388C 137.231,134.122 133.412,133.772 129.474,133.339L 127.757,147.864C 132.8,148.698 137.739,149.344 142.573,149.803C 147.408,150.262 151.888,150.494 156.015,150.501C 167.812,150.263 175.813,147.518 180.017,142.264C 184.221,137.01 186.192,130.671 185.931,123.247C 186.107,115.653 184.215,109.503 180.254,104.796C 176.292,100.09 169.207,97.1615 158.997,96.0115L 146.202,94.5524L 147.197,79.3538L 182.79,79.3538L 183.394,64.8783 Z "></path></g></svg>
