<svg viewBox="0 0 256.00 256.00" enable-background="new 0 0 256.00 256.00" xml:space="preserve"><path fill-opacity="1" stroke-width="0" stroke-linejoin="round" d="M 87.931,128.213L 167.766,128.213L 167.766,144.165L 87.931,144.165L 87.931,128.213 Z M 87.9176,152.136L 143.785,152.136L 143.785,168.108L 87.9176,168.108L 87.9176,152.136 Z M 72.8073,56.3391L 151.804,56.3391L 199.667,104.259L 199.667,183.289C 199.667,192.574 192.14,200.1 182.856,200.1L 72.8073,200.1C 63.5229,200.1 55.9965,192.574 55.9965,183.289L 55.9965,73.15C 55.9965,63.8656 63.5229,56.3391 72.8073,56.3391 Z M 71.9587,72.3115L 71.9587,184.091L 183.721,184.091L 183.721,112.237L 143.812,112.237L 143.812,72.3115L 71.9587,72.3115 Z "></path></svg>
