<svg viewBox="0 0 256.00 256.00" enable-background="new 0 0 256.00 256.00" xml:space="preserve"><g stroke="none" stroke-width="1" fill-rule="evenodd"><rect x="0" y="0" fill="none"></rect><g transform="translate(58.000000, 53.000000)" fill-rule="nonzero" stroke="#ffffff" stroke-width="2"><path d="M69.6788698,56.2776413 C59.4331695,56.2776413 51.1407862,64.5700246 51.1407862,74.8157248 C51.1407862,85.0614251 59.4331695,93.3538084 69.6788698,93.3538084 C79.92457,93.3538084 88.2169533,85.0614251 88.2169533,74.8157248 C88.2169533,64.5700246 79.92457,56.2776413 69.6788698,56.2776413 Z M69.6788698,85.982801 C63.5240786,85.982801 58.5117936,80.970516 58.5117936,74.8157248 C58.5117936,68.6609337 63.5240786,63.6486486 69.6788698,63.6486486 C75.8336609,63.6486486 80.8459459,68.6609337 80.8459459,74.8157248 C80.8459459,80.970516 75.8336609,85.982801 69.6788698,85.982801 Z"></path><path d="M69.6788698,11.6461916 C59.4331695,11.6461916 51.1407862,19.9385749 51.1407862,30.1842752 C51.1407862,40.4299754 59.4331695,48.7223587 69.6788698,48.7223587 C79.92457,48.7223587 88.2169533,40.4299754 88.2169533,30.1842752 C88.2169533,19.97543 79.92457,11.6830467 69.6788698,11.6461916 Z M69.6788698,41.3513514 C63.5240786,41.3513514 58.5117936,36.3390663 58.5117936,30.1842752 C58.5117936,24.029484 63.5240786,19.017199 69.6788698,19.017199 C75.8336609,19.017199 80.8459459,24.029484 80.8459459,30.1842752 C80.8459459,36.3759214 75.8336609,41.3513514 69.6788698,41.3513514 Z"></path><path d="M69.6788698,100.909091 C59.4331695,100.909091 51.1407862,109.201474 51.1407862,119.447174 C51.1407862,129.692875 59.4331695,137.985258 69.6788698,137.985258 C79.92457,137.985258 88.2169533,129.692875 88.2169533,119.447174 C88.2169533,109.201474 79.92457,100.909091 69.6788698,100.909091 Z M69.6788698,130.614251 C63.5240786,130.614251 58.5117936,125.601966 58.5117936,119.447174 C58.5117936,113.292383 63.5240786,108.280098 69.6788698,108.280098 C75.8336609,108.280098 80.8459459,113.292383 80.8459459,119.447174 C80.8459459,125.601966 75.8336609,130.614251 69.6788698,130.614251 Z"></path><path d="M135.575676,98.7714988 L106.902457,98.7714988 L106.902457,90.036855 L138.044963,62.7272727 C139.187469,61.7321867 139.592875,60.1474201 139.040049,58.7100737 C138.487224,57.2727273 137.086732,56.3513514 135.575676,56.3882064 L106.902457,56.3882064 L106.902457,47.4324324 L138.044963,20.1597052 C139.592875,18.7960688 139.70344,16.4373464 138.339803,14.8894349 C137.639558,14.1154791 136.644472,13.6363636 135.575676,13.6363636 L106.644472,13.6363636 C105.538821,5.82309582 98.868059,0.0368550369 90.944226,0 L48.3766585,0 C40.4896806,0.0368550369 33.8189189,5.82309582 32.6764128,13.6363636 L3.74520885,13.6363636 C1.68132678,13.6732187 0.0228501229,15.3316953 0.0591025955,17.3955774 C0.0591025955,18.4275184 0.501965602,19.4226044 1.27592138,20.1228501 L32.4552826,47.4324324 L32.4552826,56.3882064 L3.78206388,56.3882064 C1.75503686,56.3513514 0.133415233,57.972973 0.0965601966,59.963145 C0.0965601966,61.031941 0.538820639,62.027027 1.31277641,62.7272727 L32.4552826,90 L32.4552826,98.7714988 L3.78206388,98.7714988 C1.71818182,98.8083538 0.0591025955,100.503686 0.0965601966,102.604423 C0.0965601966,103.636364 0.575675676,104.63145 1.31277641,105.331695 L32.4552826,132.641278 L32.4552826,133.673219 C32.4552826,142.407862 39.6420147,149.668305 48.3766585,149.668305 L90.9810811,149.668305 C99.7157248,149.668305 106.902457,142.407862 106.902457,133.673219 L106.902457,132.641278 L138.044963,105.331695 C139.592875,103.931204 139.70344,101.572482 138.339803,100.02457 C137.639558,99.2506143 136.644472,98.8083538 135.575676,98.7714988 Z M106.902457,21.007371 L125.772236,21.007371 L106.902457,37.6289926 L106.902457,21.007371 Z M106.902457,63.7592138 L125.772236,63.7592138 L106.902457,80.2334152 L106.902457,63.7592138 Z M32.4552826,122.800983 L13.5855037,106.142506 L32.4552826,106.142506 L32.4552826,122.800983 Z M32.4552826,80.2334152 L13.5855037,63.7592138 L32.4552826,63.7592138 L32.4552826,80.2334152 Z M32.4552826,37.6289926 L13.5855037,21.007371 L32.4552826,21.007371 L32.4552826,37.6289926 L32.4552826,37.6289926 Z M99.5314496,133.415233 C99.5314496,138.095823 95.7353808,141.891892 91.0547912,141.891892 L48.3029484,141.891892 C43.6223587,141.891892 39.8262899,138.095823 39.8262899,133.415233 L39.8262899,15.8476658 C39.8262899,11.1670762 43.6223587,7.37100737 48.3029484,7.37100737 L91.0547912,7.37100737 C95.7353808,7.37100737 99.5314496,11.1670762 99.5314496,15.8476658 L99.5314496,133.415233 Z M106.902457,122.800983 L106.902457,106.142506 L125.772236,106.142506 L106.902457,122.800983 Z"></path></g></g></svg>
