<svg viewBox="0 0 256.00 256.00" enable-background="new 0 0 256.00 256.00" xml:space="preserve"><g><path fill-opacity="1" stroke-linejoin="round" d="M 87.1516,81.7975L 87.1516,91.9212L 78.4092,93.4L 78.2142,93.4L 78.2142,109L 63.5404,109L 63.5404,93.4L 35.1517,93.4C 32.0317,93.4 29.6917,92.1813 28.1317,89.7438C 26.5717,87.3063 26.3821,84.6304 27.5629,81.7162L 46.1692,37.24L 61.1517,37.24L 44.0892,78.385C 43.6125,79.555 43.58,80.4163 43.9917,80.9688C 44.4033,81.5213 45.1292,81.7975 46.1692,81.7975L 63.5404,81.7975L 63.5404,62.3463L 66.1404,50.76L 78.2142,50.76L 78.2142,81.7975L 87.1516,81.7975 Z "></path><path fill-opacity="1" stroke-linejoin="round" d="M 81.0092,218.824L 65.2142,218.824L 65.2142,168.79C 65.2142,165.768 65.42,163.195 65.8317,161.072L 49.0942,165.378L 47.2092,154.88L 65.2142,147.064L 81.0092,147.064L 81.0092,218.824 Z "></path></g><rect x="113.625" y="40.1666" fill-opacity="1" stroke-linejoin="round" width="116" height="22.3333"></rect><rect x="113.625" y="172.5" fill-opacity="1" stroke-linejoin="round" width="86.3333" height="22.3333"></rect><rect x="113.625" y="80.8333" fill-opacity="1" stroke-linejoin="round" width="46.5" height="22.3333"></rect></svg>
